<svg width="49" height="36" viewBox="0 0 49 36" fill="none" xmlns="http://www.w3.org/2000/svg">
<g clip-path="url(#clip0_78_1155)">
<path d="M14.3714 35.9747V8.99368H8.45376C6.21168 8.99368 4.06139 8.10535 2.476 6.52413C0.890612 4.9429 0 2.7983 0 0.562105V0H23.3887V35.9747H14.3714ZM0 35.9747V26.981H14.3714V35.9747H0Z" fill="#bac6de"/>
<path d="M25.3613 8.99368V-9.53674e-07L40.2963 -9.53674e-07C42.5384 -9.53674e-07 44.6886 0.888323 46.274 2.46955C47.8594 4.05078 48.7501 6.19538 48.7501 8.43157V8.99368L25.3613 8.99368Z" fill="#bac6de"/>
<path d="M25.2666 36V27.0001H39.7039V22.5002H48.7278V27.9001H48.7213C48.6353 30.0772 47.7077 32.1367 46.1329 33.6467C44.5581 35.1567 42.4583 36.0001 40.2737 36H25.2666ZM25.2666 22.5002V13.4992H40.274C41.3842 13.4992 42.4834 13.7173 43.5091 14.141C44.5348 14.5648 45.4667 15.1858 46.2517 15.9688C47.0367 16.7517 47.6594 17.6812 48.0842 18.7042C48.5091 19.7271 48.7278 20.8236 48.7278 21.9308V22.4994L25.2666 22.5002Z" fill="#bac6de"/>
<path d="M39.7314 24.7326C39.7717 23.6064 38.9788 22.4842 38.0032 22.4842C37.0276 22.4842 39.0907 21.1444 39.0907 21.1444L41.8993 23.4847L39.7314 24.7326Z" fill="#bac6de"/>
<path d="M39.7314 24.7326C39.7717 25.8588 38.9788 26.981 38.0032 26.981C37.0276 26.981 39.0907 28.3208 39.0907 28.3208L41.8993 25.9805L39.7314 24.7326Z" fill="#bac6de"/>
</g>
<defs>
<clipPath id="clip0_78_1155">
<rect width="48.75" height="36" fill="#bac6de"/>
</clipPath>
</defs>
</svg>
