<svg width="235" height="604" viewBox="0 0 235 604" fill="none" xmlns="http://www.w3.org/2000/svg">
<path style="animation: sway 7s ease-in-out infinite 3s;" d="M153.799 484.751L105.971 512.365L105.971 457.138L153.799 484.751Z" fill="#0B1420"/>
<path style="animation: sway 8s ease-in-out infinite 1s;" d="M63.7705 508.196L15.9428 535.809L15.9428 480.583L63.7705 508.196Z" fill="#0B1420"/>
<path style="animation: sway 6s ease-in-out infinite 5s;" d="M187.56 571.966L139.732 599.58L139.732 544.353L187.56 571.966Z" fill="#0B1420"/>
<path style="animation: sway 7s ease-in-out infinite 2s;" d="M132.229 380.655L84.4017 408.269L84.4017 353.042L132.229 380.655Z" fill="#0B1420"/>
<path style="animation: sway 8s ease-in-out infinite 4s;" d="M131.292 516.636L179.12 489.023L179.12 544.25L131.292 516.636Z" fill="#0B1420"/>
<path style="animation: sway 6s ease-in-out infinite 0s;" d="M55.3301 557.9L103.158 530.286L103.158 585.513L55.3301 557.9Z" fill="#0B1420"/>
<path style="animation: sway 7s ease-in-out infinite 6s;" d="M107.847 420.981L155.674 393.368L155.674 448.594L107.847 420.981Z" fill="#0B1420"/>
<path style="animation: sway 8s ease-in-out infinite 3s;" d="M58.1436 316.885L105.971 289.272L105.971 344.499L58.1436 316.885Z" fill="#0B1420"/>
<path style="animation: sway 6s ease-in-out infinite 1s;" d="M39.3867 462.244L87.2145 434.631L87.2145 489.857L39.3867 462.244Z" fill="#0B1420"/>
<path style="animation: sway 7s ease-in-out infinite 5s;" d="M16.8799 380.655L64.7076 353.042L64.7076 408.269L16.8799 380.655Z" fill="#0B1420"/>
<path style="animation: sway 8s ease-in-out infinite 2s;" d="M132.229 348.77L180.057 321.157L180.057 376.384L132.229 348.77Z" fill="#0B1420"/>
<path style="animation: sway 6s ease-in-out infinite 4s;" d="M81.2012 119.1L129.029 91.4871L129.029 146.714L81.2012 119.1Z" fill="#0B1420"/>
<path style="animation: sway 7s ease-in-out infinite 0s;" d="M171.229 95.6555L219.057 68.0421L219.057 123.269L171.229 95.6555Z" fill="#0B1420"/>
<path style="animation: sway 8s ease-in-out infinite 6s;" d="M47.4404 31.8851L95.2682 4.27177L95.2682 59.4985L47.4404 31.8851Z" fill="#0B1420"/>
<path style="animation: sway 6s ease-in-out infinite 3s;" d="M102.771 223.196L150.598 195.583L150.598 250.81L102.771 223.196Z" fill="#0B1420"/>
<path style="animation: sway 7s ease-in-out infinite 1s;" d="M103.708 87.2153L55.8802 114.829L55.8803 59.6019L103.708 87.2153Z" fill="#0B1420"/>
<path style="animation: sway 8s ease-in-out infinite 5s;" d="M179.67 45.9521L131.842 73.5655L131.842 18.3387L179.67 45.9521Z" fill="#0B1420"/>
<path style="animation: sway 6s ease-in-out infinite 2s;" d="M127.153 182.871L79.3256 210.484L79.3256 155.257L127.153 182.871Z" fill="#0B1420"/>
<path style="animation: sway 7s ease-in-out infinite 4s;" d="M176.856 286.966L129.029 314.58L129.029 259.353L176.856 286.966Z" fill="#0B1420"/>
<path style="animation: sway 8s ease-in-out infinite 0s;" d="M195.613 141.608L147.786 169.221L147.786 113.994L195.613 141.608Z" fill="#0B1420"/>
<path style="animation: sway 6s ease-in-out infinite 6s;" d="M218.12 223.196L170.292 250.809L170.292 195.583L218.12 223.196Z" fill="#0B1420"/>
<path style="animation: sway 7s ease-in-out infinite 3s;" d="M102.771 255.081L54.9427 282.695L54.9428 227.468L102.771 255.081Z" fill="#0B1420"/>
</svg>
