<svg width="378" height="358" viewBox="0 0 378 358" fill="none" xmlns="http://www.w3.org/2000/svg">
  <path style="animation: fadeOutIn 8s ease-in-out infinite;" d="M187.922 300.856L102.802 350L102.802 251.712L187.922 300.856Z" fill="#0B1420"/>
  <path style="animation: fadeOutIn 8s ease-in-out infinite 2s;" d="M130.578 243.512L215.698 292.656L215.698 194.368L130.578 243.512Z" fill="#0B1420"/>
  <path style="animation: fadeOutIn 8s ease-in-out infinite 4s;" d="M-2.48047e-06 243.512L85.12 292.656L85.12 194.368L-2.48047e-06 243.512Z" fill="#0B1420"/>
  <path style="animation: fadeOutIn 8s ease-in-out infinite 6s;" d="M187.922 187.363L102.802 236.507L102.802 138.219L187.922 187.363Z" fill="#0B1420"/>
  <path style="animation: fadeOutIn 8s ease-in-out infinite 8s;" d="M130.577 130.019L215.697 179.163L215.697 80.8746L130.577 130.019Z" fill="#0B1420"/>
  <path style="animation: fadeOutIn 8s ease-in-out infinite 10s;" d="M321.724 170.637L236.604 219.781L236.604 121.493L321.724 170.637Z" fill="#0B1420"/>
  <path style="animation: fadeOutIn 8s ease-in-out infinite 12s;" d="M264.38 113.293L349.5 162.437L349.5 64.1493L264.38 113.293Z" fill="#0B1420"/>
  <path style="animation: fadeOutIn 8s ease-in-out infinite 14s;" d="M321.724 57.144L236.604 106.288L236.604 8L321.724 57.144Z" fill="#0B1420"/>
</svg>


